<svg width="120" height="120" viewBox="0 0 120 120" fill="none" xmlns="http://www.w3.org/2000/svg">
<rect width="120" height="120" fill="#026B52"/>
<path d="M28.856 57.2292C28.6434 57.2292 28.4647 57.161 28.3286 57.0245C28.1925 56.8881 28.1245 56.709 28.1245 56.4958V40.6263H22.7402C22.5445 40.6263 22.3744 40.5581 22.2383 40.4217C22.1022 40.2852 22.0342 40.1147 22.0342 39.9185V37.2495C22.0342 37.0277 22.1022 36.8572 22.2383 36.7122C22.3744 36.5758 22.5445 36.5076 22.7402 36.5076H38.2127C38.4254 36.5076 38.604 36.5758 38.74 36.7122C38.8761 36.8487 38.9442 37.0277 38.9442 37.2409V39.9015C38.9442 40.0976 38.8761 40.2682 38.74 40.4046C38.604 40.541 38.4254 40.6093 38.2127 40.6093H32.8709V56.4788C32.8709 56.692 32.8028 56.871 32.6667 57.0075C32.5306 57.1439 32.352 57.2121 32.1393 57.2121H28.8645L28.856 57.2292Z" fill="white"/>
<path d="M50.2318 57.5277C48.4965 57.5277 46.9824 57.2377 45.681 56.6579C44.3796 56.078 43.3759 55.1741 42.6699 53.9632C41.9639 52.7523 41.6066 51.2088 41.6066 49.3328V37.2495C41.6066 37.0363 41.6747 36.8572 41.8107 36.7208C41.9468 36.5843 42.1255 36.5161 42.3381 36.5161H45.5534C45.7661 36.5161 45.9447 36.5843 46.0893 36.7208C46.2254 36.8572 46.2934 37.0363 46.2934 37.2495V49.2987C46.2934 50.7569 46.6337 51.8484 47.3312 52.5562C48.0202 53.2639 48.9814 53.6221 50.2233 53.6221C51.4651 53.6221 52.4008 53.2639 53.0898 52.5562C53.7788 51.8484 54.1275 50.7569 54.1275 49.2987V37.2495C54.1275 37.0363 54.2041 36.8572 54.3487 36.7208C54.4933 36.5843 54.6719 36.5161 54.8675 36.5161H58.1169C58.3125 36.5161 58.4826 36.5843 58.6187 36.7208C58.7548 36.8572 58.8229 37.0363 58.8229 37.2495V49.3243C58.8229 51.2003 58.4656 52.7438 57.7596 53.9547C57.0536 55.1656 56.0584 56.0695 54.774 56.6493C53.4981 57.2292 51.9755 57.5191 50.2233 57.5191L50.2318 57.5277Z" fill="white"/>
<path d="M63.229 57.0245C63.3651 57.161 63.5437 57.2292 63.7563 57.2292H66.8951C67.1077 57.2292 67.2864 57.161 67.4225 57.0245C67.5586 56.8881 67.6266 56.709 67.6266 56.4958V49.094L74.1508 56.6749C74.1794 56.7037 74.2219 56.7423 74.2782 56.7927C74.3388 56.847 74.4154 56.915 74.508 56.999C74.6867 57.161 74.9503 57.2377 75.3076 57.2377H78.9992C79.1779 57.2377 79.3224 57.1695 79.4415 57.0416C79.5606 56.9137 79.6201 56.7772 79.6201 56.6152C79.6201 56.4532 79.5776 56.3338 79.5011 56.2571L71.3523 46.425L78.9396 37.4882C79.0162 37.3859 79.0587 37.2665 79.0587 37.1301C79.0587 36.9766 78.9992 36.8316 78.8801 36.7037C78.761 36.5758 78.6164 36.5076 78.4378 36.5076H74.8652C74.542 36.5076 74.2954 36.5758 74.1082 36.7037C73.9211 36.8316 73.785 36.951 73.7084 37.0704L67.6181 44.0032V37.2495C67.6181 37.0363 67.5501 36.8572 67.414 36.7208C67.2779 36.5843 67.0992 36.5161 66.8866 36.5161H63.7563C63.5437 36.5161 63.3651 36.5843 63.229 36.7208C63.0929 36.8572 63.0248 37.0363 63.0248 37.2495V56.4958C63.0248 56.709 63.0929 56.8881 63.229 57.0245Z" fill="white"/>
<path d="M50.2318 83.4923C48.4965 83.4923 46.9824 83.2024 45.681 82.6225C44.3796 82.0426 43.3759 81.1387 42.6699 79.9278C41.9639 78.7169 41.6066 77.1735 41.6066 75.2974V63.2226C41.6066 63.0094 41.6746 62.8304 41.8107 62.6939C41.9468 62.5575 42.1255 62.4893 42.3381 62.4893H45.5534C45.7661 62.4893 45.9447 62.5575 46.0893 62.6939C46.2254 62.8304 46.2934 63.0094 46.2934 63.2226V75.2719C46.2934 76.73 46.6337 77.8216 47.3312 78.5293C48.0202 79.2371 48.9814 79.5953 50.2233 79.5953C51.4651 79.5953 52.4008 79.2371 53.0898 78.5293C53.7788 77.8216 54.1275 76.73 54.1275 75.2719V63.2226C54.1275 63.0094 54.2041 62.8304 54.3487 62.6939C54.4933 62.5575 54.6719 62.4893 54.8675 62.4893H58.1169C58.3125 62.4893 58.4826 62.5575 58.6187 62.6939C58.7548 62.8304 58.8228 63.0094 58.8228 63.2226V75.2974C58.8228 77.1735 58.4656 78.7169 57.7596 79.9278C57.0536 81.1387 56.0584 82.0426 54.774 82.6225C53.4981 83.2024 51.9755 83.4923 50.2233 83.4923H50.2318Z" fill="white"/>
<path d="M28.856 83.2024C28.6434 83.2024 28.4647 83.1341 28.3286 82.9977C28.1925 82.8613 28.1245 82.6822 28.1245 82.469V66.5995H22.7402C22.5445 66.5995 22.3744 66.5312 22.2383 66.3948C22.1022 66.2584 22.0342 66.0878 22.0342 65.8917V63.2311C22.0342 63.018 22.1022 62.8389 22.2383 62.7024C22.3744 62.566 22.5445 62.4978 22.7402 62.4978H38.2127C38.4254 62.4978 38.6039 62.566 38.74 62.7024C38.8761 62.8389 38.9442 63.018 38.9442 63.2311V65.8917C38.9442 66.0878 38.8761 66.2584 38.74 66.3948C38.6039 66.5312 38.4254 66.5995 38.2127 66.5995H32.8709V82.469C32.8709 82.6822 32.8028 82.8613 32.6667 82.9977C32.5306 83.1341 32.352 83.2024 32.1393 83.2024H28.856Z" fill="white"/>
<path d="M63.2289 82.9977C63.365 83.1341 63.5437 83.2024 63.7563 83.2024V83.2109H66.8866C67.0992 83.2109 67.2779 83.1427 67.414 83.0062C67.5501 82.8698 67.6181 82.6907 67.6181 82.4775V75.0757L74.1422 82.6566C74.1791 82.6936 74.2388 82.7469 74.3213 82.8206C74.3721 82.8659 74.4315 82.919 74.4995 82.9806C74.6781 83.1427 74.9418 83.2194 75.2991 83.2194H78.9907C79.1693 83.2194 79.3139 83.1512 79.433 83.0233C79.5521 82.8954 79.6116 82.7589 79.6116 82.5969C79.6116 82.4349 79.5691 82.3155 79.4925 82.2388L71.3437 72.4066L78.9311 63.4699C79.0077 63.3676 79.0502 63.2482 79.0502 63.1118C79.0502 62.9583 78.9907 62.8133 78.8716 62.6854C78.7525 62.5575 78.6079 62.4893 78.4293 62.4893H74.8567C74.5335 62.4893 74.2869 62.5575 74.0997 62.6854C73.9125 62.8133 73.7764 62.9327 73.6999 63.0521L67.6181 69.9763V63.2226C67.6181 63.0094 67.5501 62.8304 67.414 62.6939C67.2779 62.5575 67.0992 62.4893 66.8866 62.4893H63.7563C63.5437 62.4893 63.365 62.5575 63.2289 62.6939C63.0929 62.8304 63.0248 63.0094 63.0248 63.2226V82.469C63.0248 82.6822 63.0929 82.8613 63.2289 82.9977Z" fill="white"/>
<path d="M97.9658 71.1585V71.6303C97.9658 71.6303 97.9658 71.6646 97.9658 71.6817C97.9572 72.0077 97.9231 72.325 97.872 72.651C97.7953 73.1399 97.676 73.6117 97.5226 74.0834C97.1818 75.087 96.679 76.0048 96.0398 76.8454C95.6819 77.3258 95.2814 77.7718 94.8724 78.2178C94.3952 78.7411 93.9179 79.2643 93.4322 79.7704C92.5119 80.7396 91.5489 81.666 90.4922 82.4809C90.3218 82.6096 90.1599 82.7554 89.9809 82.8755C89.4952 83.21 88.9498 83.3301 88.3703 83.2529C88.0209 83.21 87.6886 83.0899 87.3988 82.884C87.1773 82.7211 86.9642 82.5495 86.7512 82.378C86.0695 81.8204 85.4133 81.2371 84.7827 80.6281C83.7089 79.5988 82.6949 78.5095 81.7319 77.3687C81.0757 76.5881 80.573 75.7046 80.2065 74.7525C79.8401 73.7746 79.6271 72.7711 79.5844 71.7246C79.5674 71.2786 79.5844 70.8411 79.6185 70.3951C79.6526 70.0434 79.7123 69.6917 79.789 69.3486C80.0787 68.062 80.6156 66.8869 81.4422 65.8575C81.9705 65.1971 82.5841 64.6224 83.2743 64.1335C84.3396 63.3786 85.5156 62.8811 86.7853 62.6238C87.1943 62.538 87.6119 62.4866 88.038 62.4608C88.4214 62.4351 88.7964 62.4351 89.1714 62.4608C89.606 62.478 90.0406 62.538 90.4667 62.6238C91.1399 62.761 91.7875 62.9583 92.4181 63.2328C93.4066 63.6703 94.2929 64.2535 95.0769 65.0084C95.9205 65.8147 96.6108 66.7325 97.1221 67.7875C97.5993 68.7739 97.8805 69.8032 97.9487 70.9012C97.9487 70.9955 97.9572 71.0899 97.9658 71.1756V71.1585ZM85.2002 71.6989C85.2002 73.6031 86.7256 75.1728 88.6601 75.1728C90.5604 75.1728 92.1113 73.6117 92.1113 71.7075C92.1113 69.8032 90.586 68.225 88.6515 68.225C86.7512 68.225 85.2002 69.7947 85.2088 71.6989H85.2002Z" fill="#FFBA0A"/>
</svg>
