<svg width="226" height="203" viewBox="0 0 226 203" fill="none" xmlns="http://www.w3.org/2000/svg">
<path fill-rule="evenodd" clip-rule="evenodd" d="M188.335 148.092L165.001 171.523L141.666 148.092C141.157 147.581 140.669 147.058 140.2 146.523H149.15C153.295 149.083 158.383 150.523 164.045 150.523C179.09 150.523 190.001 140.352 190.001 126.023C190.001 111.695 179.09 101.523 164.045 101.523C159.169 101.523 154.718 102.592 150.929 104.523H138.788C139.663 103.378 140.622 102.277 141.666 101.229C154.553 88.2882 175.448 88.2882 188.335 101.229C201.222 114.17 201.222 135.151 188.335 148.092Z" fill="#71AE22"/>
<path d="M47.9602 91.9307V59.0673H35V51.43H70.2934V59.0673H57.3332V91.9307H47.9602Z" fill="#CEFFAA"/>
<path d="M96.3554 60.8031H105.381V91.9307H96.8182V88.2278C94.446 90.9471 90.9746 92.3936 87.1559 92.3936C79.3451 92.3936 73.8486 87.9964 73.8486 78.3919V60.8031H82.8744V77.0612C82.8744 82.2684 85.1887 84.5827 89.181 84.5827C93.3467 84.5827 96.3554 81.9213 96.3554 76.1933V60.8031Z" fill="#CEFFAA"/>
<path d="M136.944 91.9307L127.108 79.7227L122.769 84.0042V91.9307H113.743V49H122.769V73.3004L135.961 60.8031H146.722L133.762 73.9947L147.879 91.9307H136.944Z" fill="#CEFFAA"/>
<path d="M47.9602 141.11V108.247H35V100.609H70.2934V108.247H57.3332V141.11H47.9602Z" fill="#CEFFAA"/>
<path d="M96.3554 109.982H105.381V141.11H96.8182V137.407C94.446 140.127 90.9746 141.573 87.1559 141.573C79.3451 141.573 73.8486 137.176 73.8486 127.571V109.982H82.8744V126.241C82.8744 131.448 85.1887 133.762 89.181 133.762C93.3467 133.762 96.3554 131.101 96.3554 125.373V109.982Z" fill="#CEFFAA"/>
<path d="M136.944 141.11L127.108 128.902L122.769 133.184V141.11H113.743V98.1794H122.769V122.48L135.961 109.982H146.722L133.762 123.174L147.879 141.11H136.944Z" fill="#CEFFAA"/>
<path d="M163.932 141.807C154.038 141.807 146.806 135.154 146.806 125.781C146.806 116.408 154.038 109.754 163.932 109.754C173.825 109.754 181 116.408 181 125.781C181 135.154 173.825 141.807 163.932 141.807ZM163.932 134.401C168.445 134.401 171.858 131.161 171.858 125.781C171.858 120.4 168.445 117.16 163.932 117.16C159.419 117.16 155.947 120.4 155.947 125.781C155.947 131.161 159.419 134.401 163.932 134.401Z" fill="#CEFFAA"/>
</svg>
