<svg width="34" height="39" viewBox="0 0 34 39" fill="none" xmlns="http://www.w3.org/2000/svg">
<g filter="url(#filter0_d_150_2996)">
<path fill-rule="evenodd" clip-rule="evenodd" d="M16.825 0C9.74195 0 4 5.74195 4 12.825C4 16.9359 5.93412 20.595 8.94202 22.942L17 31L25.0581 22.9419C28.0659 20.5949 30 16.9358 30 12.825C30 5.74195 24.258 0 17.175 0H16.825Z" fill="#A50182"/>
</g>
<g clip-path="url(#clip0_150_2996)">
<path fill-rule="evenodd" clip-rule="evenodd" d="M17 5C21.418 5 25 8.58203 25 13C25 17.418 21.418 21 17 21C12.582 21 9 17.418 9 13C9 8.58203 12.582 5 17 5ZM16.9648 13.0208C17.194 13.0208 17.3789 13.2057 17.3789 13.4349C17.3789 13.6641 17.194 13.849 16.9648 13.849C16.7357 13.849 16.5508 13.6641 16.5508 13.4349C16.5508 13.207 16.737 13.0208 16.9648 13.0208ZM16.9688 11.9375C17.7943 11.9375 18.4622 12.6068 18.4622 13.431C18.4622 14.2565 17.793 14.9245 16.9688 14.9245C16.1445 14.9245 15.4753 14.2552 15.4753 13.431C15.4753 12.6055 16.1445 11.9375 16.9688 11.9375ZM10.9245 10.8034C11.5039 9.20052 12.6849 7.84766 14.1667 7.15625C16.2018 6.20703 18.6732 6.14714 20.7669 7.69661C22.0013 8.60938 22.4518 9.35807 23.0677 10.6849C23.5339 11.8607 23.151 12.2435 21.6523 11.5833C18.5547 10.0508 15.4232 10.1198 12.2617 11.5833C11.0951 12.3451 10.4401 11.7096 10.9245 10.8034ZM18.8828 19.1992C21.0469 18.5182 22.3099 17.1406 23.0846 15.3841C23.5885 14.026 22.0091 13.5651 21.4544 14.4596C21.1224 15.1185 20.7266 15.6836 20.2109 16.1224C19.4036 16.8086 18.2344 16.9336 18.0521 18.2266C17.957 18.8984 18.1107 19.5026 18.8828 19.1992ZM15.1536 19.1992C12.9896 18.5182 11.7266 17.1406 10.9518 15.3841C10.4479 14.026 12.0273 13.5651 12.582 14.4596C12.9141 15.1185 13.3099 15.6836 13.8255 16.1224C14.6328 16.8086 15.8021 16.9336 15.9844 18.2266C16.0794 18.8984 15.9258 19.5026 15.1536 19.1992Z" fill="#F0C5E7"/>
</g>
<defs>
<filter id="filter0_d_150_2996" x="0" y="0" width="34" height="39" filterUnits="userSpaceOnUse" color-interpolation-filters="sRGB">
<feFlood flood-opacity="0" result="BackgroundImageFix"/>
<feColorMatrix in="SourceAlpha" type="matrix" values="0 0 0 0 0 0 0 0 0 0 0 0 0 0 0 0 0 0 127 0" result="hardAlpha"/>
<feOffset dy="4"/>
<feGaussianBlur stdDeviation="2"/>
<feComposite in2="hardAlpha" operator="out"/>
<feColorMatrix type="matrix" values="0 0 0 0 0 0 0 0 0 0 0 0 0 0 0 0 0 0 0.25 0"/>
<feBlend mode="normal" in2="BackgroundImageFix" result="effect1_dropShadow_150_2996"/>
<feBlend mode="normal" in="SourceGraphic" in2="effect1_dropShadow_150_2996" result="shape"/>
</filter>
<clipPath id="clip0_150_2996">
<rect width="16" height="16" fill="white" transform="translate(9 5)"/>
</clipPath>
</defs>
</svg>
